<?xml version="1.0" encoding="utf-8"?>
<!-- Generator: Adobe Illustrator 14.0.0, SVG Export Plug-In . SVG Version: 6.00 Build 43363)  -->
<!DOCTYPE svg PUBLIC "-//W3C//DTD SVG 1.1//EN" "http://www.w3.org/Graphics/SVG/1.1/DTD/svg11.dtd">
<svg version="1.1" id="Camada_1" xmlns="http://www.w3.org/2000/svg" xmlns:xlink="http://www.w3.org/1999/xlink" x="0px" y="0px"
	 width="35px" height="160.5px" viewBox="0 -40.5 35 160.5" enable-background="new 0 -40.5 35 160.5" xml:space="preserve">
<rect y="-40.5" fill="#007CA8" width="35" height="160.5"/>
<g enable-background="new    ">
	<path fill="#FFFFFF" d="M21.609,108.291l-9.442,2.395v-1.289l4.777-1.12c1.176-0.28,2.352-0.532,3.264-0.7v-0.027
		c-0.939-0.154-2.061-0.449-3.279-0.771l-4.763-1.26v-1.275l4.791-1.148c1.12-0.266,2.241-0.518,3.235-0.658v-0.028
		c-1.035-0.196-2.086-0.462-3.263-0.757l-4.763-1.246v-1.246l9.442,2.675v1.274l-4.917,1.191c-1.204,0.294-2.129,0.49-3.081,0.615
		v0.029c0.938,0.153,1.862,0.377,3.081,0.729l4.917,1.344V108.291z"/>
	<path fill="#FFFFFF" d="M17.182,93.113v3.656h3.404v-4.09h1.023v5.322h-9.442V92.89h1.022v3.88h2.984v-3.656H17.182z"/>
	<path fill="#FFFFFF" d="M21.609,87.096l-9.442,2.396v-1.289l4.777-1.12c1.176-0.28,2.352-0.532,3.264-0.7v-0.028
		c-0.939-0.154-2.061-0.448-3.279-0.771l-4.763-1.261v-1.274l4.791-1.148c1.12-0.267,2.241-0.519,3.235-0.659v-0.027
		c-1.035-0.196-2.086-0.463-3.263-0.757l-4.763-1.246v-1.247l9.442,2.676v1.274l-4.917,1.19c-1.204,0.294-2.129,0.49-3.081,0.616
		v0.028c0.938,0.154,1.862,0.378,3.081,0.729l4.917,1.345V87.096z"/>
	<path fill="#FFFFFF" d="M12.167,75.573h9.442v1.232h-9.442V75.573z"/>
	<path fill="#FFFFFF" d="M20.125,73.601c0.35-0.547,0.615-1.331,0.615-2.172c0-1.246-0.658-1.975-1.611-1.975
		c-0.867,0-1.386,0.504-1.863,1.779c-0.56,1.54-1.372,2.493-2.689,2.493c-1.471,0-2.563-1.219-2.563-3.054
		c0-0.953,0.224-1.667,0.462-2.073l0.994,0.336c-0.182,0.294-0.448,0.925-0.448,1.779c0,1.288,0.771,1.779,1.415,1.779
		c0.883,0,1.316-0.575,1.821-1.878c0.616-1.597,1.387-2.395,2.773-2.395c1.457,0,2.732,1.064,2.732,3.291
		c0,0.911-0.281,1.905-0.617,2.41L20.125,73.601z"/>
	<path fill="#FFFFFF" d="M12.167,65.326h3.95V60.76h-3.95v-1.232h9.442v1.232h-4.427v4.566h4.427v1.232h-9.442V65.326z"/>
	<path fill="#FFFFFF" d="M21.609,52.991h-4.006l-5.436,2.998v-1.401l2.605-1.33c0.715-0.351,1.289-0.645,1.947-0.938v-0.028
		c-0.616-0.252-1.232-0.588-1.947-0.952l-2.605-1.359v-1.372l5.421,3.151h4.021V52.991z"/>
	<path fill="#FFFFFF" d="M16.791,39.954c3.235,0,4.973,1.975,4.973,4.384c0,2.508-1.947,4.245-4.805,4.245
		c-2.998,0-4.959-1.85-4.959-4.371C12,41.621,13.975,39.954,16.791,39.954z M16.93,47.294c2.031,0,3.837-1.093,3.837-3.025
		c0-1.934-1.777-3.026-3.921-3.026c-1.891,0-3.852,0.981-3.852,3.012C12.995,46.285,14.872,47.294,16.93,47.294z"/>
	<path fill="#FFFFFF" d="M12.167,37.158h5.604c2.1,0,2.997-0.938,2.997-2.199c0-1.387-0.924-2.297-2.997-2.297h-5.604v-1.233h5.52
		c2.899,0,4.077,1.527,4.077,3.572c0,1.933-1.094,3.39-4.035,3.39h-5.562V37.158z"/>
	<path fill="#FFFFFF" d="M13.205,27.526v2.871h-1.037v-6.989h1.037v2.886h8.405v1.232H13.205z"/>
	<path fill="#FFFFFF" d="M16.791,11.325c3.235,0,4.973,1.975,4.973,4.384c0,2.508-1.947,4.245-4.805,4.245
		c-2.998,0-4.959-1.85-4.959-4.371C12,12.992,13.975,11.325,16.791,11.325z M16.93,18.665c2.031,0,3.837-1.093,3.837-3.025
		c0-1.934-1.777-3.026-3.921-3.026c-1.891,0-3.852,0.981-3.852,3.012C12.995,17.656,14.872,18.665,16.93,18.665z"/>
	<path fill="#FFFFFF" d="M12.28,9.747c-0.098-0.589-0.182-1.358-0.182-2.34c0-1.204,0.279-2.087,0.784-2.647
		c0.448-0.504,1.135-0.826,1.975-0.826c0.854,0,1.527,0.252,2.018,0.729c0.687,0.658,1.036,1.695,1.036,2.886
		c0,0.364-0.014,0.7-0.084,0.98h3.783v1.219H12.28z M16.833,8.528c0.069-0.267,0.098-0.603,0.098-1.009
		c0-1.471-0.729-2.367-2.003-2.367c-1.261,0-1.863,0.896-1.863,2.228c0,0.532,0.042,0.938,0.099,1.148H16.833z"/>
	<path fill="#FFFFFF" d="M12.167,1.08h9.442v1.232h-9.442V1.08z"/>
	<path fill="#FFFFFF" d="M21.609-1.047h-9.442v-1.345l4.777-3.012c1.106-0.687,2.1-1.247,3.067-1.681l-0.014-0.042
		c-1.26,0.111-2.41,0.14-3.88,0.14h-3.95v-1.148h9.442v1.232l-4.792,2.998c-1.05,0.658-2.129,1.288-3.151,1.751l0.014,0.042
		c1.191-0.07,2.325-0.084,3.895-0.084h4.035V-1.047z"/>
	<path fill="#FFFFFF" d="M12.167-11.478h9.442v1.232h-9.442V-11.478z"/>
	<path fill="#FFFFFF" d="M16.791-21.673c3.235,0,4.973,1.975,4.973,4.384c0,2.508-1.947,4.245-4.805,4.245
		c-2.998,0-4.959-1.85-4.959-4.371C12-20.006,13.975-21.673,16.791-21.673z M16.93-14.333c2.031,0,3.837-1.093,3.837-3.025
		c0-1.934-1.777-3.026-3.921-3.026c-1.891,0-3.852,0.981-3.852,3.012C12.995-15.342,14.872-14.333,16.93-14.333z"/>
	<path fill="#FFFFFF" d="M21.609-23.25h-9.442v-1.345l4.777-3.012c1.106-0.687,2.1-1.247,3.067-1.681l-0.014-0.042
		c-1.26,0.111-2.41,0.14-3.88,0.14h-3.95v-1.148h9.442v1.232l-4.792,2.998c-1.05,0.658-2.129,1.288-3.151,1.751l0.014,0.042
		c1.191-0.07,2.325-0.084,3.895-0.084h4.035V-23.25z"/>
</g>
</svg>
