<?xml version="1.0" encoding="utf-8"?>
<!-- Generator: Adobe Illustrator 14.0.0, SVG Export Plug-In . SVG Version: 6.00 Build 43363)  -->
<!DOCTYPE svg PUBLIC "-//W3C//DTD SVG 1.1//EN" "http://www.w3.org/Graphics/SVG/1.1/DTD/svg11.dtd">
<svg version="1.1" id="Camada_1" xmlns="http://www.w3.org/2000/svg" xmlns:xlink="http://www.w3.org/1999/xlink" x="0px" y="0px"
	 width="190px" height="200px" viewBox="0 0 190 200" enable-background="new 0 0 190 200" xml:space="preserve">
<g>
	<g>
		<rect fill="#3B2C84" width="186.104" height="138.492"/>
	</g>
	<g opacity="0.85">
		<path fill="#FFFFFF" d="M123.755,117.656L74.428,96.418l0.784,1.053l-6.271-53.339l-0.52,1.204l43.059-32.098l-1.304,0.154
			l49.326,21.24l-0.783-1.05l6.271,53.335l0.52-1.205l-43.058,32.097L123.755,117.656z M167.596,86.61l-6.272-53.336l-0.087-0.752
			l-0.697-0.298l-49.324-21.241l-0.695-0.3l-0.608,0.453L66.855,43.233l-0.607,0.454l0.088,0.751l6.272,53.338l0.087,0.753
			l0.697,0.299l49.327,21.237l0.696,0.299l0.605-0.453l43.058-32.097l0.605-0.452L167.596,86.61z"/>
	</g>
	<g>
		<path fill="#FFFFFF" d="M160.915,117.223l-55.976,14.402l1.696,0.473L66.173,90.821l0.44,1.706l15.517-55.678l-1.257,1.234
			l55.972-14.399l-1.696-0.473l40.463,41.273l-0.438-1.705l-15.515,55.677L160.915,117.223z M178.128,62.019l-40.464-41.273
			l-0.712-0.726l-0.985,0.252L79.994,34.67l-0.984,0.254l-0.274,0.979L63.219,91.582l-0.273,0.98l0.712,0.726l40.461,41.276
			l0.712,0.726l0.984-0.254l55.978-14.401l0.984-0.252l0.273-0.98l15.516-55.678l0.272-0.98L178.128,62.019z"/>
	</g>
	<g opacity="0.7">
		<path fill="#FFFFFF" d="M152.171,122l-61.017,5.411l1.692,0.787L57.652,78.059l0.165,1.859l25.824-55.545l-1.529,1.073
			l61.012-5.406l-1.693-0.788l35.197,50.135l-0.164-1.859l-25.823,55.546L152.171,122z M179.684,67.242l-35.195-50.135l-0.619-0.882
			l-1.074,0.095l-61.01,5.406l-1.073,0.095l-0.455,0.978L54.432,78.345l-0.454,0.977l0.619,0.882l35.193,50.139l0.619,0.882
			l1.074-0.095l61.017-5.412l1.073-0.095l0.453-0.979l25.822-55.545l0.455-0.977L179.684,67.242z"/>
	</g>
	<g>
		<path fill="#FFFFFF" d="M17.609,99.255v-6.963l19.813-8.687l-19.813-8.471v-6.819l32.879,14.213v2.153L17.609,99.255z"/>
		<path fill="#FFFFFF" d="M21.845,52.954V52.81c-3.087-2.44-4.881-6.029-4.881-9.62c0-6.317,4.307-10.983,13.136-10.983h19.741
			v6.389H29.885c-4.738,0-7.824,2.441-7.824,6.318c0,2.799,1.292,5.025,4.666,8.041h23.114v6.389H0.883v-6.389H21.845z"/>
		<path fill="#FFFFFF" d="M49.841,12.465v6.389H0.883v-6.389H49.841z"/>
	</g>
	<g>
		<path fill="#3B2C84" d="M3.499,166.556h3.333v24.056H3.499V166.556z"/>
		<path fill="#3B2C84" d="M29.381,166.556c0.586,0,1.043,0.206,1.371,0.62c0.327,0.413,0.49,0.935,0.49,1.566
			c0,0.654-0.17,1.181-0.507,1.577c-0.339,0.396-0.772,0.594-1.301,0.594c-0.564,0-1.009-0.214-1.335-0.637
			c-0.327-0.426-0.489-0.938-0.488-1.534c-0.001-0.652,0.177-1.183,0.532-1.585C28.497,166.756,28.911,166.556,29.381,166.556z
			 M27.78,174.16h3.334v16.451H27.78V174.16z"/>
		<path fill="#3B2C84" d="M51.974,166.556h3.333v9.77c0.56-0.841,1.179-1.469,1.857-1.883c0.68-0.416,1.418-0.625,2.217-0.625
			c1.725,0,3.114,0.836,4.17,2.503c1.056,1.668,1.584,3.636,1.584,5.9c0,2.637-0.637,4.75-1.907,6.342
			c-1.271,1.595-2.735,2.391-4.389,2.391c-0.633,0-1.251-0.153-1.854-0.455c-0.603-0.303-1.188-0.753-1.751-1.348l-0.862,1.461
			h-2.397V166.556z M55.307,186.011c0.421,0.646,0.874,1.132,1.36,1.461c0.484,0.328,0.993,0.489,1.529,0.489
			c1.014,0,1.869-0.543,2.563-1.63c0.695-1.087,1.043-2.466,1.043-4.135c0-1.486-0.298-2.754-0.897-3.808
			c-0.598-1.053-1.393-1.578-2.383-1.578c-0.913,0-1.676,0.475-2.292,1.424c-0.616,0.949-0.923,2.166-0.923,3.651V186.011z"/>
		<path fill="#3B2C84" d="M88.518,176.554c0.487-0.911,1.018-1.597,1.597-2.052c0.577-0.455,1.205-0.685,1.884-0.685
			c0.464,0,1.008,0.117,1.631,0.347v3.341c-0.567-0.265-1.108-0.397-1.618-0.397c-1.023,0-1.864,0.444-2.521,1.329
			c-0.66,0.885-0.988,1.956-0.988,3.208v8.967h-3.333V174.16h3.076L88.518,176.554z"/>
		<path fill="#3B2C84" d="M113.146,175.163c1.664-0.896,3.295-1.346,4.892-1.346c1.021,0,1.91,0.189,2.668,0.564
			c0.759,0.375,1.389,0.952,1.895,1.73c0.504,0.78,0.758,1.7,0.758,2.763v8.16c0,0.705,0.281,1.055,0.847,1.055
			c0.333,0,0.649-0.11,0.947-0.331v2.846c-0.734,0.146-1.44,0.221-2.118,0.221c-1.787,0-2.733-0.696-2.837-2.092
			c-0.523,0.734-1.093,1.288-1.707,1.662c-0.615,0.371-1.282,0.558-1.999,0.558c-1.446,0-2.607-0.507-3.483-1.52
			c-0.877-1.016-1.314-2.246-1.314-3.7c0-3.409,2.778-5.317,8.331-5.719v-0.482c0-0.846-0.249-1.534-0.749-2.061
			c-0.5-0.527-1.185-0.79-2.049-0.79c-1.196,0-2.556,0.624-4.08,1.872V175.163z M120.024,182.535
			c-2.035,0.219-3.378,0.596-4.026,1.132c-0.647,0.534-0.973,1.218-0.973,2.047c0,0.703,0.219,1.296,0.659,1.78
			c0.438,0.482,0.991,0.726,1.662,0.726c0.796,0,1.442-0.335,1.937-1.003c0.495-0.668,0.741-1.584,0.741-2.747V182.535z"/>
		<path fill="#3B2C84" d="M147.907,176.554c0.486-0.911,1.019-1.597,1.596-2.052c0.578-0.455,1.206-0.685,1.886-0.685
			c0.463,0,1.007,0.117,1.631,0.347v3.341c-0.567-0.265-1.107-0.397-1.619-0.397c-1.021,0-1.863,0.444-2.521,1.329
			c-0.658,0.885-0.988,1.956-0.988,3.208v8.967h-3.332V174.16h3.076L147.907,176.554z"/>
		<path fill="#3B2C84" d="M171.455,174.16h3.641l3.376,11.759l2.991-11.759h3.439l-5.479,18.756c-0.659,2.171-1.364,3.66-2.11,4.47
			c-0.745,0.812-1.778,1.216-3.098,1.216c-0.66,0-1.284-0.113-1.876-0.342v-2.905c0.447,0.227,0.911,0.342,1.393,0.342
			c0.677,0,1.193-0.295,1.554-0.887c0.362-0.592,0.863-2,1.507-4.226L171.455,174.16z"/>
	</g>
	<g>
		<path fill="#3B2C84" d="M1.463,147.991h3.106l2.779,10.77l2.776-10.77h2.999l-4.386,14.314H5.83L1.463,147.991z"/>
		<path fill="#3B2C84" d="M19.134,141.369c0.51,0,0.908,0.18,1.192,0.54c0.285,0.361,0.428,0.816,0.428,1.367
			c0,0.572-0.148,1.03-0.442,1.375c-0.296,0.348-0.672,0.52-1.134,0.52c-0.491,0-0.878-0.186-1.162-0.556
			c-0.286-0.37-0.426-0.816-0.425-1.339c-0.001-0.569,0.154-1.031,0.462-1.381C18.366,141.544,18.725,141.369,19.134,141.369z
			 M17.763,147.991h2.863v14.314h-2.863V147.991z"/>
		<path fill="#3B2C84" d="M30.079,150.072c0.426-0.795,0.891-1.39,1.395-1.785c0.504-0.396,1.052-0.595,1.646-0.595
			c0.405,0,0.88,0.1,1.423,0.301v2.906c-0.493-0.229-0.96-0.345-1.402-0.345c-0.885,0-1.615,0.385-2.186,1.155
			c-0.57,0.771-0.855,1.702-0.855,2.793v7.803h-2.863v-14.314h2.605L30.079,150.072z"/>
		<path fill="#3B2C84" d="M41.92,143.419h2.523v4.572h2.733v2.393h-2.733v8.54c0,0.383,0.105,0.671,0.316,0.865
			c0.211,0.196,0.529,0.294,0.953,0.294c0.431,0,0.921-0.147,1.464-0.45v2.504c-0.823,0.312-1.641,0.468-2.455,0.468
			c-0.964,0-1.714-0.261-2.251-0.782c-0.537-0.523-0.805-1.25-0.805-2.187v-9.252h-1.923v-2.393h1.923L41.92,143.419z"/>
		<path fill="#3B2C84" d="M52.088,147.991h2.82v9.674c0,0.661,0.167,1.199,0.5,1.619c0.332,0.42,0.802,0.629,1.409,0.629
			c0.834,0,1.522-0.425,2.065-1.272c0.542-0.85,0.812-1.923,0.812-3.222v-7.428h2.864v14.314h-2.694l-0.148-1.875
			c-0.519,0.719-1.081,1.263-1.686,1.628c-0.604,0.363-1.256,0.546-1.956,0.546c-1.259,0-2.238-0.413-2.938-1.237
			c-0.7-0.826-1.048-1.966-1.048-3.418V147.991z"/>
		<path fill="#3B2C84" d="M69.295,148.866c1.442-0.783,2.853-1.174,4.237-1.174c0.884,0,1.655,0.163,2.311,0.49
			c0.656,0.327,1.203,0.831,1.641,1.51c0.438,0.678,0.656,1.48,0.656,2.406v7.107c0,0.614,0.248,0.921,0.744,0.921
			c0.294,0,0.573-0.095,0.837-0.287v2.485c-0.634,0.13-1.243,0.195-1.828,0.195c-1.539,0-2.354-0.618-2.445-1.852
			c-0.458,0.639-0.956,1.123-1.495,1.447c-0.536,0.325-1.119,0.488-1.746,0.488c-1.264,0-2.279-0.438-3.045-1.319
			c-0.767-0.878-1.148-1.948-1.148-3.207c0-2.956,2.419-4.609,7.264-4.96v-0.425c0-0.75-0.219-1.358-0.654-1.824
			c-0.436-0.467-1.03-0.698-1.781-0.698c-1.04,0-2.222,0.552-3.548,1.656V148.866z M75.278,155.297
			c-1.776,0.189-2.946,0.517-3.512,0.98c-0.565,0.463-0.848,1.053-0.848,1.77c0,0.605,0.192,1.12,0.573,1.538
			c0.382,0.418,0.866,0.627,1.45,0.627c0.695,0,1.259-0.289,1.69-0.866c0.431-0.578,0.647-1.369,0.647-2.375V155.297z"/>
		<path fill="#3B2C84" d="M84.946,141.369h2.862v20.937h-2.862V141.369z"/>
		<path fill="#3B2C84" d="M104.854,141.369h2.864v8.494c0.497-0.725,1.054-1.266,1.665-1.629c0.612-0.361,1.283-0.542,2.011-0.542
			c1.236,0,2.198,0.42,2.892,1.261c0.691,0.843,1.038,1.978,1.038,3.41v9.942h-2.861v-9.76c0-0.641-0.168-1.161-0.498-1.56
			c-0.331-0.402-0.783-0.603-1.356-0.603c-0.81,0-1.494,0.389-2.053,1.165c-0.558,0.774-0.837,1.729-0.837,2.859v7.897h-2.864
			V141.369z"/>
		<path fill="#3B2C84" d="M131.976,160.938c-1.855,1.11-3.44,1.666-4.757,1.666c-2.006,0-3.551-0.719-4.637-2.154
			c-1.088-1.438-1.632-3.166-1.632-5.189c0-2.182,0.598-3.989,1.79-5.421c1.195-1.433,2.671-2.147,4.429-2.147
			c1.608,0,2.896,0.59,3.865,1.771c0.969,1.18,1.453,2.73,1.453,4.65v1.056h-8.63v0.509c0,1.27,0.349,2.314,1.048,3.132
			c0.7,0.82,1.532,1.229,2.496,1.229c1.381,0,2.905-0.795,4.574-2.385V160.938z M124.07,152.905h5.427
			c-0.069-0.94-0.306-1.646-0.708-2.115c-0.403-0.47-0.978-0.706-1.722-0.706c-0.638,0-1.206,0.236-1.708,0.706
			S124.429,151.965,124.07,152.905z"/>
		<path fill="#3B2C84" d="M138.397,148.866c1.444-0.783,2.855-1.174,4.238-1.174c0.883,0,1.654,0.163,2.311,0.49
			s1.203,0.831,1.641,1.51c0.438,0.678,0.656,1.48,0.656,2.406v7.107c0,0.614,0.248,0.921,0.746,0.921
			c0.293,0,0.572-0.095,0.836-0.287v2.485c-0.634,0.13-1.243,0.195-1.826,0.195c-1.54,0-2.356-0.618-2.446-1.852
			c-0.459,0.639-0.958,1.123-1.493,1.447c-0.539,0.325-1.121,0.488-1.746,0.488c-1.266,0-2.279-0.438-3.048-1.319
			c-0.765-0.878-1.148-1.948-1.148-3.207c0-2.956,2.421-4.609,7.265-4.96v-0.425c0-0.75-0.22-1.358-0.655-1.824
			c-0.435-0.467-1.027-0.698-1.778-0.698c-1.041,0-2.223,0.552-3.551,1.656V148.866z M144.382,155.297
			c-1.776,0.189-2.946,0.517-3.511,0.98c-0.566,0.463-0.848,1.053-0.848,1.77c0,0.605,0.188,1.12,0.571,1.538
			s0.866,0.627,1.452,0.627c0.691,0,1.257-0.289,1.687-0.866c0.432-0.578,0.648-1.369,0.648-2.375V155.297z"/>
		<path fill="#3B2C84" d="M154.049,141.369h2.861v20.937h-2.861V141.369z"/>
		<path fill="#3B2C84" d="M164.249,143.419h2.521v4.572h2.735v2.393h-2.735v8.54c0,0.383,0.106,0.671,0.318,0.865
			c0.211,0.196,0.53,0.294,0.952,0.294c0.434,0,0.921-0.147,1.465-0.45v2.504c-0.823,0.312-1.641,0.468-2.453,0.468
			c-0.966,0-1.717-0.261-2.253-0.782c-0.536-0.523-0.806-1.25-0.806-2.187v-9.252h-1.922v-2.393h1.922L164.249,143.419z"/>
		<path fill="#3B2C84" d="M174.588,141.369h2.863v8.494c0.498-0.725,1.052-1.266,1.665-1.629c0.613-0.361,1.283-0.542,2.011-0.542
			c1.234,0,2.198,0.42,2.892,1.261c0.689,0.843,1.038,1.978,1.038,3.41v9.942h-2.863v-9.76c0-0.641-0.165-1.161-0.495-1.56
			c-0.332-0.402-0.785-0.603-1.358-0.603c-0.809,0-1.493,0.389-2.052,1.165c-0.557,0.774-0.837,1.729-0.837,2.859v7.897h-2.863
			V141.369z"/>
	</g>
</g>
</svg>
