<?xml version="1.0" encoding="utf-8"?>
<!-- Generator: Adobe Illustrator 14.0.0, SVG Export Plug-In . SVG Version: 6.00 Build 43363)  -->
<!DOCTYPE svg PUBLIC "-//W3C//DTD SVG 1.1//EN" "http://www.w3.org/Graphics/SVG/1.1/DTD/svg11.dtd">
<svg version="1.1" id="Camada_1" xmlns="http://www.w3.org/2000/svg" xmlns:xlink="http://www.w3.org/1999/xlink" x="0px" y="0px"
	 width="190px" height="200px" viewBox="0 0 190 200" enable-background="new 0 0 190 200" xml:space="preserve">
<g>
	<rect x="0.067" y="0.449" fill="#3B2C85" width="189.933" height="141.341"/>
</g>
<g opacity="0.85">
	<path fill="#FFFFFF" d="M126.369,120.526L76.027,98.852l0.799,1.073l-6.4-54.435l-0.53,1.229l43.945-32.759l-1.33,0.156
		l50.34,21.678l-0.801-1.072l6.402,54.432l0.528-1.229l-43.942,32.759L126.369,120.526z M171.11,88.842l-6.4-54.433l-0.09-0.767
		l-0.711-0.306L113.57,11.658l-0.71-0.305l-0.62,0.462L68.297,44.572l-0.619,0.462l0.089,0.767l6.402,54.436l0.089,0.767l0.71,0.306
		l50.342,21.677l0.71,0.305l0.619-0.462l43.941-32.758l0.62-0.461L171.11,88.842z"/>
</g>
<g>
	<path fill="#FFFFFF" d="M164.293,120.084l-57.127,14.697l1.731,0.482L67.603,93.139l0.448,1.741l15.836-56.824l-1.284,1.258
		l57.124-14.694l-1.731-0.482l41.297,42.122l-0.447-1.741l-15.835,56.822L164.293,120.084z M181.858,63.744l-41.295-42.123
		l-0.727-0.741l-1.005,0.258L81.708,35.833l-1.005,0.259l-0.278,1L64.587,93.916l-0.278,1l0.726,0.741l41.294,42.125l0.727,0.742
		l1.006-0.259l57.128-14.698l1.005-0.259l0.277-1l15.835-56.822l0.278-1L181.858,63.744z"/>
</g>
<g opacity="0.7">
	<path fill="#FFFFFF" d="M155.367,124.959l-62.271,5.521l1.728,0.804L58.906,80.115l0.168,1.897L85.43,25.324l-1.559,1.094
		l62.266-5.518l-1.728-0.803l35.921,51.167l-0.169-1.898l-26.354,56.688L155.367,124.959z M183.448,69.074l-35.921-51.167
		l-0.631-0.9l-1.097,0.098l-62.266,5.518l-1.096,0.096l-0.463,0.998L55.62,80.405l-0.464,0.997l0.632,0.901l35.917,51.17
		l0.632,0.899l1.096-0.096l62.271-5.523l1.097-0.097l0.463-0.998l26.354-56.688l0.463-0.998L183.448,69.074z"/>
</g>
<path fill="#FFFFFF" d="M20.383,91.123c-2.052-2.857-3.004-5.788-3.004-9.084c0-8.206,6.96-14.213,16.411-14.213
	c11.136,0,17.803,6.593,17.803,17.583c0,4.323-0.952,9.012-2.491,12.235H0.968v-6.521H20.383z M44.414,91.123
	c0.586-1.904,1.026-4.688,1.026-6.593c0-5.861-4.469-10.038-10.696-10.038c-6.96,0-11.502,3.664-11.502,9.158
	c0,2.711,0.879,4.688,3.371,7.473H44.414z"/>
<path fill="#FFFFFF" d="M18.039,61.451v-7.106l20.221-8.865l-20.221-8.645v-6.96L51.594,44.38v2.198L18.039,61.451z"/>
<path fill="#FFFFFF" d="M26.538,2.181c-2.418,3.663-3.444,7.106-3.444,9.524c0,2.638,1.245,4.323,3.003,4.323
	c1.465,0,3.224-2.198,6.594-7.986c3.59-5.421,5.861-7.399,9.231-7.399c5.788,0,9.671,4.615,9.671,10.843
	c0,4.029-0.806,7.179-3.004,11.429h-7.034c2.931-4.25,4.323-8.133,4.323-10.77c-0.146-2.638-1.393-4.835-3.737-4.835
	c-4.542,0-6.959,15.386-15.825,15.386c-5.568,0-8.938-4.25-8.938-10.844c0-3.077,0.879-6.227,2.711-9.67H26.538z"/>
<path fill="#3B2C85" d="M1.315,146.682h3.401v9.971c0.571-0.856,1.203-1.498,1.896-1.922c0.693-0.423,1.447-0.636,2.263-0.636
	c1.759,0,3.178,0.853,4.255,2.554c1.078,1.702,1.617,3.71,1.617,6.023c0,2.688-0.649,4.847-1.946,6.472
	c-1.297,1.627-2.79,2.439-4.48,2.439c-0.646,0-1.276-0.155-1.892-0.466c-0.616-0.31-1.211-0.769-1.787-1.375l-0.88,1.491H1.315
	V146.682z M4.716,166.539c0.43,0.658,0.892,1.154,1.387,1.489c0.494,0.334,1.015,0.502,1.561,0.502c1.035,0,1.907-0.556,2.617-1.665
	c0.709-1.11,1.064-2.517,1.064-4.221c0-1.515-0.305-2.81-0.916-3.884c-0.61-1.076-1.422-1.613-2.433-1.613
	c-0.931,0-1.709,0.485-2.338,1.454c-0.628,0.97-0.942,2.211-0.942,3.727V166.539z"/>
<path fill="#3B2C85" d="M26.772,146.682c0.598,0,1.063,0.211,1.398,0.633c0.333,0.423,0.5,0.954,0.5,1.6
	c0,0.669-0.173,1.205-0.519,1.609c-0.345,0.404-0.788,0.605-1.327,0.605c-0.575,0-1.029-0.217-1.362-0.649
	c-0.333-0.434-0.5-0.956-0.499-1.565c0-0.667,0.181-1.206,0.543-1.618C25.869,146.887,26.291,146.682,26.772,146.682z
	 M25.138,154.444h3.401v16.789h-3.401V154.444z"/>
<path fill="#3B2C85" d="M39.773,146.682h3.401v9.971c0.571-0.856,1.203-1.498,1.896-1.922c0.693-0.423,1.447-0.636,2.263-0.636
	c1.76,0,3.178,0.853,4.255,2.554c1.078,1.702,1.616,3.71,1.616,6.023c0,2.688-0.648,4.847-1.945,6.472
	c-1.297,1.627-2.791,2.439-4.48,2.439c-0.646,0-1.277-0.155-1.893-0.466c-0.616-0.31-1.211-0.769-1.787-1.375l-0.881,1.491h-2.446
	V146.682z M43.174,166.539c0.43,0.658,0.892,1.154,1.386,1.489c0.495,0.334,1.015,0.502,1.561,0.502
	c1.035,0,1.908-0.556,2.617-1.665c0.709-1.11,1.064-2.517,1.064-4.221c0-1.515-0.306-2.81-0.916-3.884
	c-0.61-1.076-1.422-1.613-2.433-1.613c-0.931,0-1.71,0.485-2.338,1.454c-0.628,0.97-0.941,2.211-0.941,3.727V166.539z"/>
<path fill="#3B2C85" d="M63.242,146.682h3.402v24.552h-3.402V146.682z"/>
<path fill="#3B2C85" d="M79.602,146.682c0.597,0,1.063,0.211,1.398,0.633c0.334,0.423,0.5,0.954,0.5,1.6
	c0,0.669-0.173,1.205-0.518,1.609s-0.788,0.605-1.328,0.605c-0.575,0-1.029-0.217-1.362-0.649c-0.333-0.434-0.5-0.956-0.499-1.565
	c0-0.667,0.181-1.206,0.543-1.618C78.699,146.887,79.121,146.682,79.602,146.682z M77.968,154.444h3.402v16.789h-3.402V154.444z"/>
<path fill="#3B2C85" d="M98.771,154.095c2.215,0,3.979,0.802,5.294,2.403c1.312,1.604,1.968,3.72,1.968,6.35
	c0,2.524-0.632,4.611-1.897,6.261c-1.267,1.65-3.008,2.475-5.224,2.475c-2.228,0-3.959-0.838-5.196-2.511
	c-1.237-1.672-1.855-3.729-1.855-6.172c0-2.512,0.639-4.607,1.917-6.287C95.056,154.935,96.721,154.095,98.771,154.095z
	 M99.114,156.887c-1.248,0-2.203,0.555-2.862,1.665c-0.659,1.108-0.989,2.608-0.989,4.499c0,1.667,0.341,3.026,1.024,4.077
	c0.685,1.052,1.556,1.576,2.617,1.576c1.084,0,1.976-0.524,2.677-1.576c0.7-1.051,1.051-2.526,1.051-4.43
	c0-1.715-0.334-3.111-1.007-4.192C100.953,157.426,100.117,156.887,99.114,156.887z"/>
<path fill="#3B2C85" d="M117.292,149.08h2.97v5.364h3.184v2.79h-3.184v10.061c0,0.449,0.124,0.79,0.37,1.021
	c0.245,0.229,0.614,0.345,1.108,0.345c0.504,0,1.07-0.177,1.705-0.528v2.907c-0.964,0.36-1.922,0.543-2.874,0.543
	c-1.129,0-2.008-0.308-2.636-0.921c-0.631-0.612-0.943-1.468-0.943-2.564v-10.863h-2.226v-2.79h2.226L117.292,149.08z"/>
<path fill="#3B2C85" d="M145.094,169.62c-2.173,1.309-4.029,1.963-5.569,1.963c-2.348,0-4.157-0.844-5.431-2.526
	c-1.272-1.686-1.909-3.713-1.909-6.085c0-2.561,0.7-4.679,2.099-6.358c1.397-1.679,3.127-2.519,5.188-2.519
	c1.884,0,3.396,0.692,4.53,2.077c1.134,1.385,1.702,3.202,1.702,5.451v1.237h-10.116v0.598c0,1.488,0.409,2.714,1.229,3.674
	c0.82,0.962,1.794,1.441,2.924,1.441c1.615,0,3.399-0.934,5.354-2.8V169.62z M135.849,160.2h6.367
	c-0.082-1.105-0.359-1.934-0.832-2.485c-0.473-0.553-1.146-0.828-2.02-0.828c-0.747,0-1.415,0.275-2.002,0.828
	C136.772,158.267,136.269,159.095,135.849,160.2z"/>
<path fill="#3B2C85" d="M166.326,170.493c-1.315,0.727-2.642,1.09-3.979,1.09c-2.137,0-3.869-0.793-5.194-2.378
	c-1.328-1.586-1.99-3.622-1.99-6.11c0-2.607,0.705-4.758,2.113-6.455c1.409-1.696,3.169-2.545,5.283-2.545
	c1.126,0,2.382,0.33,3.768,0.988v3.598c-1.244-1.022-2.329-1.533-3.256-1.533c-1.314,0-2.394,0.549-3.238,1.647
	c-0.846,1.099-1.269,2.457-1.269,4.078c0,1.622,0.411,2.971,1.232,4.044c0.821,1.075,1.819,1.613,2.993,1.613
	c1.114,0,2.293-0.517,3.537-1.551V170.493z"/>
<path fill="#3B2C85" d="M176.564,155.466c1.699-0.914,3.362-1.371,4.991-1.371c1.044,0,1.95,0.192,2.725,0.575
	c0.773,0.382,1.417,0.972,1.934,1.766c0.516,0.797,0.772,1.736,0.772,2.82v8.328c0,0.718,0.288,1.077,0.863,1.077
	c0.341,0,0.663-0.112,0.97-0.338v2.904c-0.752,0.148-1.473,0.225-2.163,0.225c-1.824,0-2.789-0.713-2.896-2.135
	c-0.535,0.749-1.116,1.314-1.743,1.695c-0.627,0.379-1.308,0.57-2.039,0.57c-1.477,0-2.66-0.518-3.556-1.551
	c-0.894-1.036-1.34-2.294-1.34-3.776c0-3.48,2.833-5.426,8.503-5.837v-0.49c0-0.865-0.256-1.568-0.767-2.105
	s-1.208-0.808-2.09-0.808c-1.22,0-2.608,0.639-4.165,1.913V155.466z M183.586,162.991c-2.077,0.224-3.448,0.609-4.111,1.154
	c-0.661,0.548-0.99,1.243-0.99,2.09c0,0.717,0.223,1.322,0.67,1.815c0.447,0.494,1.012,0.74,1.697,0.74
	c0.813,0,1.472-0.341,1.977-1.021c0.505-0.682,0.758-1.617,0.758-2.804V162.991z"/>
<path fill="#3B2C85" d="M1.114,185.264h3.032l2.704,10.501l2.704-10.501h2.924L8.223,199.22H5.388L1.114,185.264z"/>
<path fill="#3B2C85" d="M16.004,178.766c0.499,0,0.888,0.178,1.167,0.529c0.279,0.351,0.418,0.796,0.418,1.333
	c0,0.557-0.145,1.004-0.433,1.341c-0.289,0.336-0.658,0.505-1.109,0.505c-0.48,0-0.86-0.181-1.138-0.542s-0.417-0.796-0.416-1.304
	c-0.001-0.558,0.15-1.007,0.454-1.349C15.249,178.938,15.602,178.766,16.004,178.766z M14.624,185.264h2.835v13.956h-2.835V185.264z
	"/>
<path fill="#3B2C85" d="M24.326,187.326c0.414-0.774,0.866-1.355,1.358-1.743c0.49-0.387,1.025-0.579,1.603-0.579
	c0.394,0,0.856,0.098,1.387,0.292v2.834c-0.483-0.223-0.941-0.336-1.376-0.336c-0.87,0-1.584,0.374-2.145,1.124
	c-0.56,0.748-0.84,1.654-0.84,2.713v7.589h-2.835v-13.911h2.617L24.326,187.326z"/>
<path fill="#3B2C85" d="M33.443,180.773h2.455v4.49h2.66v2.312h-2.66v8.332c0,0.374,0.103,0.655,0.308,0.846
	c0.207,0.19,0.515,0.286,0.926,0.286c0.421,0,0.896-0.146,1.426-0.439v2.429c-0.801,0.303-1.598,0.453-2.389,0.453
	c-0.938,0-1.669-0.256-2.192-0.764c-0.522-0.509-0.783-1.217-0.783-2.128v-9.015h-1.875v-2.312h1.875L33.443,180.773z"/>
<path fill="#3B2C85" d="M40.948,185.264h2.747v9.416c0,0.641,0.161,1.166,0.483,1.572c0.322,0.41,0.774,0.612,1.36,0.612
	c0.806,0,1.471-0.412,1.995-1.237c0.523-0.827,0.785-1.871,0.785-3.135v-7.229h2.834v13.956h-2.704l-0.145-1.846
	c-0.501,0.699-1.043,1.225-1.626,1.578c-0.583,0.353-1.211,0.529-1.886,0.529c-1.214,0-2.159-0.402-2.834-1.206
	c-0.674-0.803-1.011-1.91-1.011-3.323V185.264z"/>
<path fill="#3B2C85" d="M55.332,186.141c1.421-0.758,2.814-1.137,4.177-1.137c0.873,0,1.632,0.158,2.28,0.475
	c0.647,0.318,1.187,0.807,1.617,1.468c0.432,0.66,0.648,1.438,0.648,2.337v6.904c0,0.598,0.239,0.896,0.719,0.896
	c0.283,0,0.552-0.094,0.807-0.28v2.405c-0.621,0.125-1.218,0.187-1.79,0.187c-1.509,0-2.307-0.596-2.396-1.786
	c-0.448,0.621-0.936,1.086-1.462,1.4c-0.527,0.316-1.098,0.473-1.711,0.473c-1.239,0-2.233-0.428-2.983-1.285
	c-0.751-0.856-1.125-1.897-1.125-3.126c0-2.882,2.369-4.492,7.107-4.834v-0.402c0-0.711-0.214-1.285-0.643-1.727
	c-0.428-0.441-1.012-0.663-1.752-0.663c-1.023,0-2.187,0.523-3.492,1.568V186.141z M61.218,192.374
	c-1.74,0.184-2.888,0.504-3.442,0.955s-0.832,1.027-0.832,1.728c0,0.593,0.187,1.094,0.562,1.502
	c0.374,0.408,0.848,0.611,1.422,0.611c0.681,0,1.232-0.281,1.656-0.846c0.422-0.563,0.634-1.336,0.634-2.317V192.374z"/>
<path fill="#3B2C85" d="M68.253,178.766h2.835v20.454h-2.835V178.766z"/>
<path fill="#3B2C85" d="M92.977,197.868c-1.813,1.075-3.362,1.613-4.648,1.613c-1.958,0-3.469-0.697-4.53-2.092
	c-1.063-1.395-1.593-3.074-1.593-5.038c0-2.119,0.582-3.873,1.746-5.263c1.165-1.392,2.604-2.085,4.318-2.085
	c1.568,0,2.825,0.571,3.77,1.715c0.944,1.143,1.417,2.644,1.417,4.502v1.021H85.04v0.493c0,1.228,0.342,2.237,1.027,3.029
	c0.684,0.792,1.498,1.188,2.439,1.188c1.35,0,2.84-0.777,4.471-2.33V197.868z M85.257,190.063h5.277
	c-0.068-0.917-0.298-1.604-0.689-2.062c-0.391-0.457-0.949-0.686-1.674-0.686c-0.619,0-1.172,0.229-1.66,0.686
	C86.023,188.458,85.605,189.146,85.257,190.063z"/>
<path fill="#3B2C85" d="M105.676,187.052c0.402-0.683,0.881-1.195,1.439-1.537c0.558-0.341,1.194-0.511,1.909-0.511
	c1.037,0,1.877,0.359,2.517,1.081c0.641,0.721,0.962,1.655,0.962,2.805v10.33h-2.835v-9.779c0-0.572-0.131-1.019-0.392-1.339
	c-0.263-0.321-0.602-0.481-1.018-0.481c-0.63,0-1.171,0.322-1.621,0.969c-0.452,0.646-0.677,1.366-0.677,2.163v8.468h-2.834v-9.491
	c0-0.702-0.122-1.229-0.365-1.581c-0.243-0.353-0.606-0.527-1.095-0.527c-0.622,0-1.159,0.305-1.61,0.915
	c-0.454,0.61-0.68,1.335-0.68,2.175v8.51h-2.704v-13.956h2.486l0.234,1.567c0.42-0.614,0.889-1.071,1.402-1.374
	s1.078-0.453,1.696-0.453c0.713,0,1.335,0.17,1.863,0.511C104.884,185.856,105.323,186.369,105.676,187.052z"/>
<path fill="#3B2C85" d="M123.385,195.292c1.504,1.137,2.904,1.704,4.204,1.704c0.807,0,1.47-0.182,1.991-0.547
	s0.782-0.82,0.782-1.367c0-0.485-0.217-0.88-0.65-1.182c-0.443-0.291-1.212-0.576-2.305-0.854c-2.682-0.68-4.022-1.934-4.022-3.76
	c0-1.253,0.494-2.28,1.481-3.081c0.988-0.801,2.226-1.201,3.71-1.201c1.13,0,2.425,0.362,3.879,1.089v3.012
	c-1.419-1.134-2.669-1.703-3.75-1.703c-0.655,0-1.233,0.147-1.734,0.441c-0.501,0.295-0.753,0.696-0.753,1.206
	c0,0.415,0.205,0.749,0.613,1.005c0.407,0.255,1.175,0.537,2.304,0.845c1.318,0.371,2.327,0.845,3.027,1.418
	c0.69,0.584,1.034,1.405,1.034,2.466c0,1.392-0.519,2.521-1.558,3.393c-1.038,0.871-2.32,1.307-3.847,1.307
	c-1.441,0-2.91-0.422-4.407-1.264V195.292z"/>
<path fill="#3B2C85" d="M136.417,186.141c1.42-0.758,2.813-1.137,4.175-1.137c0.873,0,1.634,0.158,2.281,0.475
	c0.647,0.318,1.186,0.807,1.617,1.468c0.431,0.66,0.646,1.438,0.646,2.337v6.904c0,0.598,0.24,0.896,0.72,0.896
	c0.284,0,0.553-0.094,0.808-0.28v2.405c-0.621,0.125-1.218,0.187-1.789,0.187c-1.511,0-2.309-0.596-2.398-1.786
	c-0.448,0.621-0.935,1.086-1.461,1.4c-0.527,0.316-1.098,0.473-1.711,0.473c-1.239,0-2.233-0.428-2.985-1.285
	c-0.75-0.856-1.125-1.897-1.125-3.126c0-2.882,2.369-4.492,7.108-4.834v-0.402c0-0.711-0.215-1.285-0.644-1.727
	c-0.428-0.441-1.012-0.663-1.752-0.663c-1.022,0-2.187,0.523-3.49,1.568V186.141z M142.303,192.374
	c-1.74,0.184-2.889,0.504-3.442,0.955c-0.555,0.451-0.83,1.027-0.83,1.728c0,0.593,0.187,1.094,0.561,1.502s0.847,0.611,1.421,0.611
	c0.682,0,1.233-0.281,1.657-0.846c0.422-0.563,0.634-1.336,0.634-2.317V192.374z"/>
<path fill="#3B2C85" d="M149.164,185.264h2.748v9.416c0,0.641,0.16,1.166,0.481,1.572c0.32,0.41,0.774,0.612,1.359,0.612
	c0.808,0,1.472-0.412,1.995-1.237c0.523-0.827,0.785-1.871,0.785-3.135v-7.229h2.835v13.956h-2.703l-0.145-1.846
	c-0.502,0.699-1.043,1.225-1.627,1.578c-0.582,0.353-1.21,0.529-1.886,0.529c-1.215,0-2.159-0.402-2.833-1.206
	c-0.675-0.803-1.011-1.91-1.011-3.323V185.264z M154.934,179.246h2.821l-3.172,4.318h-1.844L154.934,179.246z"/>
<path fill="#3B2C85" d="M170.872,178.766h2.836v20.454h-2.704l-0.187-1.895c-0.431,0.713-0.932,1.251-1.502,1.613
	c-0.568,0.361-1.204,0.543-1.902,0.543c-1.456,0-2.625-0.693-3.505-2.077c-0.881-1.385-1.32-3.036-1.32-4.95
	c0-2.012,0.491-3.757,1.474-5.235c0.984-1.477,2.252-2.215,3.805-2.215c0.548,0,1.074,0.111,1.576,0.336
	c0.501,0.224,0.978,0.561,1.43,1.008V178.766z M170.872,189c-0.4-0.493-0.803-0.86-1.204-1.103
	c-0.402-0.244-0.809-0.364-1.219-0.364c-0.92,0-1.653,0.464-2.203,1.395c-0.55,0.932-0.823,2.06-0.823,3.388
	c0,1.288,0.246,2.384,0.744,3.284c0.497,0.901,1.152,1.354,1.966,1.354c0.832,0,1.496-0.434,1.994-1.302
	c0.497-0.868,0.745-1.897,0.745-3.09V189z"/>
<path fill="#3B2C85" d="M187.803,197.868c-1.812,1.075-3.362,1.613-4.647,1.613c-1.959,0-3.47-0.697-4.53-2.092
	c-1.063-1.395-1.594-3.074-1.594-5.038c0-2.119,0.582-3.873,1.746-5.263c1.163-1.392,2.604-2.085,4.317-2.085
	c1.568,0,2.826,0.571,3.771,1.715c0.942,1.143,1.416,2.644,1.416,4.502v1.021h-8.417v0.493c0,1.228,0.343,2.237,1.026,3.029
	s1.499,1.188,2.44,1.188c1.348,0,2.839-0.777,4.471-2.33V197.868z M180.083,190.063h5.277c-0.067-0.917-0.298-1.604-0.689-2.062
	c-0.39-0.457-0.949-0.686-1.674-0.686c-0.618,0-1.172,0.229-1.66,0.686C180.85,188.458,180.432,189.146,180.083,190.063z"/>
</svg>
