<?xml version="1.0" encoding="utf-8"?>
<!-- Generator: Adobe Illustrator 14.0.0, SVG Export Plug-In . SVG Version: 6.00 Build 43363)  -->
<!DOCTYPE svg PUBLIC "-//W3C//DTD SVG 1.1//EN" "http://www.w3.org/Graphics/SVG/1.1/DTD/svg11.dtd">
<svg version="1.1" id="Camada_1" xmlns="http://www.w3.org/2000/svg" xmlns:xlink="http://www.w3.org/1999/xlink" x="0px" y="0px"
	 width="190px" height="200px" viewBox="0 0 190 200" enable-background="new 0 0 190 200" xml:space="preserve">
<g>
	<rect x="0.067" y="0.449" fill="#3B2C85" width="189.933" height="141.341"/>
</g>
<g opacity="0.85">
	<path fill="#FFFFFF" d="M126.369,120.525L76.027,98.852l0.799,1.073l-6.4-54.435l-0.53,1.229l43.945-32.759l-1.329,0.156
		l50.34,21.678l-0.802-1.072l6.402,54.432l0.528-1.229l-43.942,32.759L126.369,120.525z M171.109,88.842l-6.399-54.433l-0.09-0.767
		l-0.711-0.306L113.57,11.658l-0.711-0.305l-0.619,0.462L68.297,44.572l-0.619,0.462l0.089,0.767l6.402,54.436l0.089,0.767
		l0.71,0.307l50.343,21.676l0.709,0.306l0.619-0.462l43.941-32.758l0.62-0.461L171.109,88.842z"/>
</g>
<g>
	<path fill="#FFFFFF" d="M164.293,120.084l-57.127,14.697l1.73,0.482L67.603,93.139l0.448,1.741l15.836-56.824l-1.284,1.258
		l57.124-14.694l-1.73-0.482l41.297,42.122l-0.447-1.741l-15.835,56.822L164.293,120.084z M181.857,63.744l-41.295-42.123
		l-0.727-0.741l-1.005,0.258L81.708,35.833l-1.005,0.259l-0.278,1L64.587,93.916l-0.278,1l0.726,0.741l41.294,42.125l0.728,0.741
		l1.006-0.258l57.127-14.699l1.006-0.258l0.277-1l15.834-56.823l0.278-1L181.857,63.744z"/>
</g>
<g opacity="0.7">
	<path fill="#FFFFFF" d="M155.367,124.959l-62.271,5.521l1.728,0.804L58.906,80.115l0.168,1.897L85.43,25.324l-1.559,1.094
		l62.266-5.518l-1.728-0.803l35.921,51.167l-0.169-1.898l-26.354,56.688L155.367,124.959z M183.448,69.074l-35.921-51.167
		l-0.631-0.9l-1.098,0.098l-62.266,5.518l-1.096,0.096l-0.463,0.998L55.62,80.405l-0.464,0.997l0.632,0.901l35.917,51.169
		l0.632,0.899l1.096-0.097l62.271-5.522l1.097-0.097l0.463-0.998l26.354-56.688l0.463-0.998L183.448,69.074z"/>
</g>
<path fill="#FFFFFF" d="M20.383,91.123c-2.052-2.857-3.004-5.788-3.004-9.084c0-8.206,6.96-14.213,16.411-14.213
	c11.136,0,17.803,6.593,17.803,17.583c0,4.323-0.952,9.012-2.491,12.235H0.968v-6.521H20.383z M44.414,91.123
	C45,89.219,45.44,86.435,45.44,84.53c0-5.861-4.469-10.038-10.696-10.038c-6.96,0-11.502,3.664-11.502,9.158
	c0,2.711,0.879,4.688,3.371,7.473H44.414z"/>
<path fill="#FFFFFF" d="M18.039,61.451v-7.106L38.26,45.48l-20.221-8.645v-6.96L51.594,44.38v2.198L18.039,61.451z"/>
<path fill="#FFFFFF" d="M26.538,2.181c-2.418,3.663-3.444,7.106-3.444,9.524c0,2.638,1.245,4.323,3.003,4.323
	c1.465,0,3.224-2.198,6.594-7.986c3.59-5.421,5.861-7.399,9.231-7.399c5.788,0,9.671,4.615,9.671,10.843
	c0,4.029-0.806,7.179-3.004,11.429h-7.034c2.931-4.25,4.323-8.133,4.323-10.77c-0.146-2.638-1.393-4.835-3.737-4.835
	c-4.542,0-6.959,15.386-15.825,15.386c-5.568,0-8.938-4.25-8.938-10.844c0-3.077,0.879-6.227,2.711-9.67L26.538,2.181L26.538,2.181z
	"/>
<path fill="#3B2C85" d="M1.315,146.682h3.401v9.971c0.571-0.855,1.203-1.498,1.896-1.922c0.693-0.422,1.447-0.635,2.263-0.635
	c1.759,0,3.178,0.853,4.255,2.553c1.078,1.703,1.617,3.711,1.617,6.023c0,2.688-0.649,4.848-1.946,6.473
	c-1.297,1.627-2.79,2.438-4.48,2.438c-0.646,0-1.276-0.155-1.892-0.466c-0.616-0.311-1.211-0.77-1.787-1.375l-0.88,1.49H1.315
	V146.682z M4.716,166.539c0.43,0.658,0.892,1.154,1.387,1.488c0.494,0.334,1.015,0.502,1.561,0.502c1.035,0,1.907-0.555,2.617-1.664
	c0.709-1.11,1.064-2.518,1.064-4.221c0-1.516-0.305-2.811-0.916-3.885c-0.61-1.076-1.422-1.613-2.433-1.613
	c-0.931,0-1.709,0.485-2.338,1.455c-0.628,0.969-0.942,2.211-0.942,3.727V166.539z"/>
<path fill="#3B2C85" d="M26.772,146.682c0.598,0,1.063,0.211,1.398,0.633c0.333,0.424,0.5,0.955,0.5,1.601
	c0,0.669-0.173,1.205-0.519,1.608c-0.345,0.404-0.788,0.605-1.327,0.605c-0.575,0-1.029-0.217-1.362-0.648
	c-0.333-0.435-0.5-0.957-0.499-1.565c0-0.667,0.181-1.206,0.543-1.618C25.869,146.887,26.291,146.682,26.772,146.682z
	 M25.138,154.443h3.401v16.789h-3.401V154.443z"/>
<path fill="#3B2C85" d="M39.773,146.682h3.401v9.971c0.571-0.855,1.203-1.498,1.896-1.922c0.693-0.422,1.447-0.635,2.263-0.635
	c1.76,0,3.178,0.853,4.255,2.553c1.078,1.703,1.616,3.711,1.616,6.023c0,2.688-0.648,4.848-1.945,6.473
	c-1.297,1.627-2.791,2.438-4.48,2.438c-0.646,0-1.277-0.155-1.893-0.466c-0.616-0.311-1.211-0.77-1.787-1.375l-0.881,1.49h-2.446
	L39.773,146.682L39.773,146.682z M43.174,166.539c0.43,0.658,0.892,1.154,1.386,1.488c0.495,0.334,1.015,0.502,1.561,0.502
	c1.035,0,1.908-0.555,2.617-1.664c0.709-1.11,1.064-2.518,1.064-4.221c0-1.516-0.306-2.811-0.916-3.885
	c-0.61-1.076-1.422-1.613-2.433-1.613c-0.931,0-1.71,0.485-2.338,1.455c-0.628,0.969-0.941,2.211-0.941,3.727V166.539
	L43.174,166.539z"/>
<path fill="#3B2C85" d="M63.242,146.682h3.402v24.553h-3.402V146.682z"/>
<path fill="#3B2C85" d="M79.602,146.682c0.597,0,1.063,0.211,1.398,0.633c0.334,0.424,0.5,0.955,0.5,1.601
	c0,0.669-0.173,1.205-0.518,1.608c-0.345,0.404-0.788,0.605-1.328,0.605c-0.575,0-1.029-0.217-1.362-0.648
	c-0.333-0.435-0.5-0.957-0.499-1.565c0-0.667,0.181-1.206,0.543-1.618C78.699,146.887,79.121,146.682,79.602,146.682z
	 M77.968,154.443h3.402v16.789h-3.402V154.443z"/>
<path fill="#3B2C85" d="M98.771,154.096c2.215,0,3.979,0.801,5.293,2.402c1.313,1.604,1.969,3.72,1.969,6.35
	c0,2.524-0.633,4.611-1.896,6.262c-1.268,1.649-3.009,2.475-5.225,2.475c-2.229,0-3.959-0.838-5.196-2.511
	c-1.237-1.673-1.855-3.729-1.855-6.173c0-2.512,0.639-4.606,1.917-6.286C95.056,154.936,96.721,154.096,98.771,154.096z
	 M99.113,156.887c-1.247,0-2.202,0.555-2.861,1.665c-0.659,1.108-0.989,2.608-0.989,4.499c0,1.667,0.34,3.026,1.024,4.077
	c0.686,1.052,1.556,1.576,2.617,1.576c1.084,0,1.976-0.524,2.677-1.576c0.7-1.051,1.051-2.526,1.051-4.43
	c0-1.716-0.334-3.111-1.007-4.192C100.953,157.426,100.117,156.887,99.113,156.887z"/>
<path fill="#3B2C85" d="M117.292,149.08h2.97v5.363h3.184v2.791h-3.184v10.061c0,0.449,0.125,0.79,0.37,1.021
	c0.245,0.229,0.614,0.345,1.108,0.345c0.504,0,1.07-0.177,1.705-0.528v2.907c-0.965,0.36-1.922,0.543-2.875,0.543
	c-1.129,0-2.008-0.308-2.635-0.921c-0.631-0.612-0.943-1.469-0.943-2.564v-10.863h-2.227v-2.789h2.227L117.292,149.08z"/>
<path fill="#3B2C85" d="M145.094,169.62c-2.173,1.31-4.029,1.963-5.568,1.963c-2.349,0-4.157-0.844-5.432-2.526
	c-1.271-1.686-1.908-3.713-1.908-6.084c0-2.562,0.699-4.68,2.099-6.359c1.397-1.678,3.127-2.519,5.188-2.519
	c1.883,0,3.396,0.692,4.529,2.077c1.135,1.385,1.702,3.202,1.702,5.451v1.236h-10.116v0.599c0,1.487,0.409,2.714,1.229,3.674
	c0.82,0.962,1.795,1.441,2.925,1.441c1.614,0,3.399-0.935,5.354-2.8v3.847H145.094z M135.85,160.2h6.366
	c-0.082-1.104-0.358-1.935-0.832-2.485c-0.473-0.553-1.146-0.828-2.021-0.828c-0.746,0-1.414,0.275-2.002,0.828
	C136.771,158.268,136.27,159.096,135.85,160.2z"/>
<path fill="#3B2C85" d="M166.326,170.493c-1.314,0.728-2.643,1.09-3.979,1.09c-2.138,0-3.869-0.793-5.195-2.378
	c-1.327-1.586-1.989-3.622-1.989-6.11c0-2.606,0.705-4.758,2.112-6.454c1.41-1.697,3.17-2.546,5.283-2.546
	c1.127,0,2.383,0.33,3.769,0.988v3.599c-1.244-1.022-2.329-1.533-3.257-1.533c-1.313,0-2.393,0.549-3.237,1.646
	c-0.847,1.1-1.269,2.457-1.269,4.078c0,1.622,0.41,2.971,1.231,4.044c0.821,1.075,1.819,1.613,2.993,1.613
	c1.113,0,2.293-0.517,3.537-1.552V170.493z"/>
<path fill="#3B2C85" d="M176.564,155.466c1.699-0.914,3.361-1.37,4.99-1.37c1.045,0,1.95,0.191,2.725,0.574
	c0.773,0.382,1.418,0.973,1.935,1.766c0.517,0.797,0.772,1.736,0.772,2.82v8.328c0,0.718,0.287,1.077,0.863,1.077
	c0.34,0,0.662-0.112,0.969-0.338v2.903c-0.752,0.148-1.473,0.226-2.162,0.226c-1.824,0-2.789-0.713-2.896-2.136
	c-0.535,0.75-1.115,1.314-1.742,1.695c-0.627,0.379-1.309,0.57-2.039,0.57c-1.478,0-2.66-0.518-3.557-1.551
	c-0.895-1.036-1.34-2.294-1.34-3.776c0-3.479,2.833-5.426,8.503-5.837v-0.49c0-0.865-0.256-1.568-0.767-2.104
	c-0.512-0.537-1.209-0.808-2.09-0.808c-1.221,0-2.608,0.639-4.166,1.912v-3.462H176.564z M183.586,162.991
	c-2.077,0.224-3.447,0.608-4.111,1.153c-0.66,0.549-0.99,1.244-0.99,2.09c0,0.718,0.224,1.322,0.67,1.815
	c0.447,0.494,1.013,0.74,1.697,0.74c0.813,0,1.473-0.341,1.978-1.021c0.505-0.683,0.758-1.617,0.758-2.805L183.586,162.991
	L183.586,162.991z"/>
<path fill="#3B2C85" d="M1.114,185.264h3.032l2.704,10.502l2.704-10.502h2.924l-4.255,13.957H5.388L1.114,185.264z"/>
<path fill="#3B2C85" d="M17.004,178.766c0.499,0,0.888,0.178,1.167,0.529c0.279,0.352,0.418,0.796,0.418,1.333
	c0,0.558-0.145,1.004-0.433,1.341c-0.289,0.336-0.658,0.506-1.109,0.506c-0.48,0-0.86-0.182-1.138-0.543
	c-0.278-0.361-0.417-0.796-0.416-1.304c-0.001-0.558,0.15-1.007,0.454-1.349C16.249,178.938,16.602,178.766,17.004,178.766z
	 M15.624,185.264h2.835v13.957h-2.835V185.264z"/>
<path fill="#3B2C85" d="M25.326,187.326c0.414-0.774,0.866-1.355,1.358-1.743c0.49-0.388,1.025-0.579,1.603-0.579
	c0.394,0,0.856,0.098,1.387,0.292v2.834c-0.483-0.223-0.941-0.336-1.376-0.336c-0.87,0-1.584,0.374-2.145,1.124
	c-0.56,0.748-0.84,1.654-0.84,2.713v7.59h-2.835v-13.912h2.617L25.326,187.326z"/>
<path fill="#3B2C85" d="M34.443,180.773h2.455v4.49h2.66v2.312h-2.66v8.332c0,0.374,0.103,0.655,0.308,0.846
	c0.207,0.19,0.515,0.286,0.926,0.286c0.421,0,0.896-0.146,1.426-0.439v2.43c-0.801,0.303-1.598,0.453-2.389,0.453
	c-0.938,0-1.669-0.256-2.192-0.765c-0.522-0.509-0.783-1.217-0.783-2.128v-9.015h-1.875v-2.312h1.875L34.443,180.773z"/>
<path fill="#3B2C85" d="M42.948,185.264h2.747v9.416c0,0.641,0.161,1.166,0.483,1.572c0.322,0.41,0.774,0.612,1.36,0.612
	c0.806,0,1.471-0.412,1.995-1.237c0.523-0.827,0.785-1.871,0.785-3.135v-7.229h2.834v13.955h-2.704l-0.145-1.846
	c-0.501,0.699-1.043,1.225-1.626,1.578c-0.583,0.354-1.211,0.529-1.886,0.529c-1.214,0-2.159-0.402-2.834-1.207
	c-0.674-0.803-1.011-1.909-1.011-3.322v-9.688H42.948z"/>
<path fill="#3B2C85" d="M57.332,186.141c1.421-0.758,2.814-1.137,4.177-1.137c0.873,0,1.632,0.158,2.28,0.475
	c0.647,0.318,1.187,0.808,1.617,1.469c0.432,0.66,0.648,1.438,0.648,2.337v6.903c0,0.599,0.239,0.896,0.719,0.896
	c0.283,0,0.552-0.094,0.807-0.279v2.404c-0.621,0.125-1.218,0.188-1.79,0.188c-1.509,0-2.307-0.597-2.396-1.787
	c-0.448,0.621-0.936,1.087-1.462,1.4c-0.527,0.316-1.098,0.473-1.711,0.473c-1.239,0-2.233-0.428-2.983-1.284
	c-0.751-0.856-1.125-1.897-1.125-3.126c0-2.883,2.369-4.492,7.107-4.834v-0.402c0-0.711-0.214-1.285-0.643-1.727
	c-0.428-0.441-1.012-0.663-1.752-0.663c-1.023,0-2.187,0.522-3.492,1.567L57.332,186.141L57.332,186.141z M63.218,192.374
	c-1.74,0.185-2.888,0.504-3.442,0.955c-0.554,0.45-0.832,1.026-0.832,1.728c0,0.594,0.187,1.094,0.562,1.502
	c0.374,0.408,0.848,0.611,1.422,0.611c0.681,0,1.232-0.281,1.656-0.846c0.422-0.563,0.634-1.336,0.634-2.317V192.374L63.218,192.374
	z"/>
<path fill="#3B2C85" d="M72.253,178.766h2.835v20.455h-2.835V178.766z"/>
<path fill="#3B2C85" d="M155.328,178.766h2.835v20.455h-2.835V178.766z"/>
<path fill="#3B2C85" d="M97.977,197.868c-1.813,1.075-3.361,1.612-4.647,1.612c-1.958,0-3.469-0.696-4.53-2.092
	c-1.063-1.395-1.593-3.074-1.593-5.037c0-2.119,0.582-3.873,1.746-5.264c1.165-1.393,2.604-2.085,4.318-2.085
	c1.568,0,2.826,0.571,3.77,1.715s1.417,2.644,1.417,4.503v1.021H90.04v0.493c0,1.228,0.342,2.236,1.027,3.029
	c0.684,0.791,1.498,1.188,2.439,1.188c1.35,0,2.84-0.777,4.471-2.33V197.868L97.977,197.868z M90.257,190.063h5.277
	c-0.068-0.916-0.298-1.604-0.689-2.062c-0.391-0.457-0.949-0.687-1.674-0.687c-0.619,0-1.172,0.229-1.66,0.687
	C91.023,188.458,90.605,189.146,90.257,190.063z"/>
<path fill="#3B2C85" d="M125.385,195.292c1.504,1.138,2.904,1.704,4.204,1.704c0.808,0,1.47-0.182,1.991-0.547
	s0.781-0.82,0.781-1.367c0-0.484-0.217-0.88-0.649-1.182c-0.442-0.291-1.212-0.576-2.305-0.854c-2.683-0.68-4.022-1.935-4.022-3.76
	c0-1.253,0.494-2.28,1.481-3.081s2.226-1.201,3.71-1.201c1.13,0,2.425,0.362,3.879,1.089v3.013c-1.419-1.135-2.669-1.703-3.75-1.703
	c-0.655,0-1.232,0.146-1.734,0.44c-0.5,0.296-0.753,0.696-0.753,1.206c0,0.415,0.205,0.749,0.613,1.006
	c0.407,0.254,1.175,0.536,2.304,0.844c1.318,0.371,2.327,0.846,3.027,1.418c0.689,0.584,1.033,1.406,1.033,2.467
	c0,1.392-0.519,2.521-1.557,3.393c-1.039,0.871-2.32,1.307-3.848,1.307c-1.441,0-2.91-0.422-4.407-1.264L125.385,195.292
	L125.385,195.292z"/>
<path fill="#3B2C85" d="M140.417,186.141c1.42-0.758,2.813-1.137,4.175-1.137c0.873,0,1.635,0.158,2.281,0.475
	c0.646,0.318,1.186,0.808,1.617,1.469c0.431,0.66,0.646,1.438,0.646,2.337v6.903c0,0.599,0.239,0.896,0.719,0.896
	c0.285,0,0.554-0.094,0.809-0.279v2.404c-0.621,0.125-1.219,0.188-1.789,0.188c-1.511,0-2.309-0.597-2.398-1.787
	c-0.447,0.621-0.935,1.087-1.461,1.4c-0.526,0.316-1.098,0.473-1.711,0.473c-1.238,0-2.232-0.428-2.984-1.284
	c-0.75-0.856-1.125-1.897-1.125-3.126c0-2.883,2.369-4.492,7.107-4.834v-0.402c0-0.711-0.215-1.285-0.644-1.727
	s-1.013-0.663-1.752-0.663c-1.022,0-2.187,0.522-3.49,1.567V186.141L140.417,186.141z M146.303,192.374
	c-1.74,0.185-2.889,0.504-3.441,0.955c-0.555,0.45-0.83,1.026-0.83,1.728c0,0.594,0.187,1.094,0.561,1.502s0.848,0.611,1.422,0.611
	c0.682,0,1.232-0.281,1.656-0.846c0.422-0.563,0.635-1.336,0.635-2.317v-1.633H146.303z"/>
<path fill="#3B2C85" d="M163.227,185.264h2.748v9.416c0,0.641,0.16,1.166,0.48,1.572c0.32,0.41,0.774,0.612,1.359,0.612
	c0.809,0,1.473-0.412,1.995-1.237c0.522-0.827,0.785-1.871,0.785-3.135v-7.229h2.835v13.955h-2.703l-0.145-1.846
	c-0.502,0.699-1.043,1.225-1.627,1.578c-0.582,0.354-1.211,0.529-1.887,0.529c-1.215,0-2.158-0.402-2.833-1.207
	c-0.675-0.803-1.011-1.909-1.011-3.322v-9.688H163.227z"/>
<path fill="#3B2C85" d="M185.982,178.766h2.836v20.455h-2.704l-0.188-1.896c-0.43,0.713-0.932,1.251-1.502,1.612
	c-0.567,0.361-1.203,0.543-1.901,0.543c-1.456,0-2.625-0.692-3.505-2.076c-0.881-1.385-1.32-3.036-1.32-4.95
	c0-2.013,0.491-3.757,1.475-5.235c0.983-1.477,2.252-2.215,3.805-2.215c0.548,0,1.074,0.111,1.576,0.336
	c0.5,0.225,0.978,0.561,1.43,1.008L185.982,178.766L185.982,178.766z M185.982,189c-0.399-0.493-0.804-0.859-1.204-1.104
	c-0.402-0.244-0.809-0.363-1.219-0.363c-0.92,0-1.653,0.464-2.203,1.395c-0.551,0.932-0.823,2.061-0.823,3.389
	c0,1.287,0.246,2.384,0.744,3.283c0.497,0.901,1.151,1.354,1.966,1.354c0.832,0,1.496-0.435,1.994-1.302
	c0.497-0.868,0.745-1.897,0.745-3.09V189L185.982,189z"/>
<g>
	<path fill="#3B2C85" d="M101.649,188.361c0-1.399-0.05-2.574-0.1-3.624h2.675l0.149,1.824h0.075c0.549-0.949,1.874-2.1,3.898-2.1
		c2.125,0,4.324,1.375,4.324,5.224V199h-3.074v-8.964c0-1.75-0.65-3.074-2.324-3.074c-1.225,0-2.074,0.874-2.399,1.799
		c-0.101,0.25-0.15,0.625-0.15,0.976V199h-3.074V188.361z"/>
</g>
</svg>
