<?xml version="1.0" encoding="utf-8"?>
<!-- Generator: Adobe Illustrator 14.0.0, SVG Export Plug-In . SVG Version: 6.00 Build 43363)  -->
<!DOCTYPE svg PUBLIC "-//W3C//DTD SVG 1.1//EN" "http://www.w3.org/Graphics/SVG/1.1/DTD/svg11.dtd">
<svg version="1.1" id="Camada_1" xmlns="http://www.w3.org/2000/svg" xmlns:xlink="http://www.w3.org/1999/xlink" x="0px" y="0px"
	 width="190px" height="200px" viewBox="0 0 190 200" enable-background="new 0 0 190 200" xml:space="preserve">
<g>
	<rect x="0.067" y="0.449" fill="#3B2C85" width="189.933" height="141.341"/>
</g>
<g opacity="0.85">
	<path fill="#FFFFFF" d="M126.369,120.525L76.027,98.852l0.799,1.073l-6.4-54.435l-0.53,1.229l43.945-32.759l-1.329,0.156
		l50.34,21.678l-0.802-1.072l6.402,54.432l0.528-1.229l-43.942,32.759L126.369,120.525z M171.109,88.842l-6.399-54.433l-0.09-0.767
		l-0.711-0.306L113.57,11.658l-0.711-0.305l-0.619,0.462L68.297,44.572l-0.619,0.462l0.089,0.767l6.402,54.436l0.089,0.767
		l0.71,0.307l50.343,21.676l0.709,0.306l0.619-0.462l43.941-32.758l0.62-0.461L171.109,88.842z"/>
</g>
<g>
	<path fill="#FFFFFF" d="M164.293,120.084l-57.127,14.697l1.73,0.482L67.603,93.139l0.448,1.741l15.836-56.824l-1.284,1.258
		l57.124-14.694l-1.73-0.482l41.297,42.122l-0.447-1.741l-15.835,56.822L164.293,120.084z M181.857,63.744l-41.295-42.123
		l-0.727-0.741l-1.005,0.258L81.708,35.833l-1.005,0.259l-0.278,1L64.587,93.916l-0.278,1l0.726,0.741l41.294,42.125l0.728,0.741
		l1.006-0.258l57.127-14.699l1.006-0.258l0.277-1l15.834-56.823l0.278-1L181.857,63.744z"/>
</g>
<g opacity="0.7">
	<path fill="#FFFFFF" d="M155.367,124.959l-62.271,5.521l1.728,0.804L58.906,80.115l0.168,1.897L85.43,25.324l-1.559,1.094
		l62.266-5.518l-1.728-0.803l35.921,51.167l-0.169-1.898l-26.354,56.688L155.367,124.959z M183.448,69.074l-35.921-51.167
		l-0.631-0.9l-1.098,0.098l-62.266,5.518l-1.096,0.096l-0.463,0.998L55.62,80.405l-0.464,0.997l0.632,0.901l35.917,51.169
		l0.632,0.899l1.096-0.097l62.271-5.522l1.097-0.097l0.463-0.998l26.354-56.688l0.463-0.998L183.448,69.074z"/>
</g>
<path fill="#FFFFFF" d="M20.383,91.123c-2.052-2.857-3.004-5.788-3.004-9.084c0-8.206,6.96-14.213,16.411-14.213
	c11.136,0,17.803,6.593,17.803,17.583c0,4.323-0.952,9.012-2.491,12.235H0.968v-6.521H20.383z M44.414,91.123
	C45,89.219,45.44,86.435,45.44,84.53c0-5.861-4.469-10.038-10.696-10.038c-6.96,0-11.502,3.664-11.502,9.158
	c0,2.711,0.879,4.688,3.371,7.473H44.414z"/>
<path fill="#FFFFFF" d="M18.039,61.451v-7.106L38.26,45.48l-20.221-8.645v-6.96L51.594,44.38v2.198L18.039,61.451z"/>
<path fill="#FFFFFF" d="M26.538,2.181c-2.418,3.663-3.444,7.106-3.444,9.524c0,2.638,1.245,4.323,3.003,4.323
	c1.465,0,3.224-2.198,6.594-7.986c3.59-5.421,5.861-7.399,9.231-7.399c5.788,0,9.671,4.615,9.671,10.843
	c0,4.029-0.806,7.179-3.004,11.429h-7.034c2.931-4.25,4.323-8.133,4.323-10.77c-0.146-2.638-1.393-4.835-3.737-4.835
	c-4.542,0-6.959,15.386-15.825,15.386c-5.568,0-8.938-4.25-8.938-10.844c0-3.077,0.879-6.227,2.711-9.67L26.538,2.181L26.538,2.181z
	"/>
<g>
	<path fill="#3B2C85" d="M0.121,145.873h2.623v9.166h0.061c0.935-1.628,2.623-2.653,4.975-2.653c3.648,0,6.181,3.015,6.181,7.417
		c0,5.216-3.317,7.81-6.573,7.81c-2.111,0-3.799-0.814-4.915-2.714h-0.06l-0.151,2.382H0c0.06-0.995,0.121-2.473,0.121-3.769
		V145.873z M2.744,161.431c0,0.332,0.03,0.664,0.121,0.965c0.482,1.84,2.05,3.105,3.98,3.105c2.804,0,4.432-2.261,4.432-5.607
		c0-2.925-1.507-5.428-4.372-5.428c-1.779,0-3.468,1.267-4.01,3.257c-0.09,0.331-0.151,0.693-0.151,1.115V161.431z"/>
	<path fill="#3B2C85" d="M22.823,148.587c0,0.904-0.633,1.628-1.688,1.628c-0.965,0-1.598-0.724-1.598-1.628
		c0-0.905,0.663-1.659,1.658-1.659C22.16,146.928,22.823,147.651,22.823,148.587z M19.868,167.28v-14.594h2.653v14.594H19.868z"/>
	<path fill="#3B2C85" d="M29.516,145.873h2.623v9.166h0.06c0.935-1.628,2.624-2.653,4.975-2.653c3.648,0,6.181,3.015,6.181,7.417
		c0,5.216-3.316,7.81-6.573,7.81c-2.11,0-3.799-0.814-4.915-2.714h-0.06l-0.151,2.382h-2.261c0.06-0.995,0.121-2.473,0.121-3.769
		V145.873z M32.139,161.431c0,0.332,0.03,0.664,0.121,0.965c0.482,1.84,2.05,3.105,3.98,3.105c2.804,0,4.432-2.261,4.432-5.607
		c0-2.925-1.507-5.428-4.372-5.428c-1.779,0-3.467,1.267-4.01,3.257c-0.091,0.331-0.151,0.693-0.151,1.115V161.431z"/>
	<path fill="#3B2C85" d="M49.263,145.873h2.653v21.407h-2.653V145.873z"/>
	<path fill="#3B2C85" d="M61.926,148.587c0,0.904-0.633,1.628-1.688,1.628c-0.965,0-1.598-0.724-1.598-1.628
		c0-0.905,0.664-1.659,1.659-1.659C61.263,146.928,61.926,147.651,61.926,148.587z M58.971,167.28v-14.594h2.653v14.594H58.971z"/>
	<path fill="#3B2C85" d="M81.825,159.863c0,5.396-3.769,7.749-7.266,7.749c-3.92,0-6.995-2.895-6.995-7.508
		c0-4.854,3.226-7.719,7.236-7.719C78.991,152.386,81.825,155.431,81.825,159.863z M70.277,160.014c0,3.196,1.809,5.608,4.402,5.608
		c2.533,0,4.433-2.382,4.433-5.669c0-2.472-1.236-5.577-4.372-5.577C71.634,154.376,70.277,157.271,70.277,160.014z"/>
	<path fill="#3B2C85" d="M90.959,149.189v3.497h3.799v2.021h-3.799v7.87c0,1.809,0.513,2.834,1.99,2.834
		c0.724,0,1.146-0.061,1.537-0.182l0.121,2.021c-0.513,0.181-1.326,0.362-2.352,0.362c-1.236,0-2.231-0.423-2.865-1.116
		c-0.724-0.813-1.025-2.11-1.025-3.829v-7.96h-2.262v-2.021h2.262v-2.713L90.959,149.189z"/>
	<path fill="#3B2C85" d="M100.336,145.873h2.654v9.136h0.061c0.422-0.754,1.084-1.447,1.898-1.899
		c0.783-0.452,1.719-0.724,2.713-0.724c1.961,0,5.096,1.206,5.096,6.211v8.684h-2.652v-8.382c0-2.353-0.875-4.312-3.377-4.312
		c-1.719,0-3.045,1.206-3.559,2.623c-0.15,0.392-0.18,0.783-0.18,1.266v8.805h-2.654V145.873z"/>
	<path fill="#3B2C85" d="M121.139,160.466c0.061,3.588,2.322,5.065,5.006,5.065c1.898,0,3.074-0.331,4.039-0.754l0.482,1.899
		c-0.934,0.423-2.563,0.936-4.885,0.936c-4.492,0-7.176-2.985-7.176-7.388c0-4.401,2.594-7.839,6.846-7.839
		c4.793,0,6.029,4.16,6.029,6.844c0,0.543-0.029,0.936-0.09,1.236H121.139z M128.918,158.566c0.029-1.658-0.693-4.281-3.678-4.281
		c-2.715,0-3.859,2.442-4.07,4.281H128.918z M124.426,146.386l2.652,4.312h-1.869l-3.678-4.312H124.426z"/>
	<path fill="#3B2C85" d="M147.309,165.049h-0.061c-0.814,1.417-2.412,2.563-4.764,2.563c-3.406,0-6.182-2.925-6.182-7.357
		c0-5.487,3.529-7.869,6.604-7.869c2.262,0,3.77,1.115,4.492,2.502h0.061l0.092-2.201h2.502c-0.061,1.207-0.121,2.503-0.121,4.011
		v16.553h-2.623V165.049z M147.309,158.597c0-0.361-0.029-0.754-0.121-1.086c-0.422-1.628-1.809-3.015-3.799-3.015
		c-2.744,0-4.402,2.321-4.402,5.578c0,2.925,1.387,5.427,4.313,5.427c1.719,0,3.195-1.055,3.799-2.864
		c0.121-0.392,0.211-0.904,0.211-1.296V158.597z"/>
	<path fill="#3B2C85" d="M169.137,163.271c0,1.537,0.031,2.864,0.121,4.01h-2.352l-0.15-2.382h-0.061
		c-0.664,1.176-2.23,2.714-4.824,2.714c-2.291,0-5.035-1.297-5.035-6.393v-8.533h2.652v8.051c0,2.774,0.875,4.674,3.258,4.674
		c1.777,0,3.014-1.236,3.496-2.442c0.152-0.362,0.242-0.845,0.242-1.356v-8.926h2.652V163.271z"/>
	<path fill="#3B2C85" d="M177.609,160.466c0.059,3.588,2.32,5.065,5.004,5.065c1.9,0,3.076-0.331,4.041-0.754l0.482,1.899
		c-0.936,0.423-2.563,0.936-4.885,0.936c-4.492,0-7.176-2.985-7.176-7.388c0-4.401,2.592-7.839,6.844-7.839
		c4.795,0,6.031,4.16,6.031,6.844c0,0.543-0.031,0.936-0.092,1.236H177.609z M185.387,158.566c0.031-1.658-0.693-4.281-3.678-4.281
		c-2.713,0-3.859,2.442-4.07,4.281H185.387z"/>
	<path fill="#3B2C85" d="M3.012,180.434l2.675,7.63c0.45,1.267,0.816,2.393,1.098,3.519h0.084c0.31-1.126,0.704-2.252,1.154-3.519
		l2.646-7.63h2.59L7.911,194.06H5.546l-5.18-13.626H3.012z"/>
	<path fill="#3B2C85" d="M17.734,176.605c0,0.844-0.591,1.52-1.577,1.52c-0.901,0-1.492-0.676-1.492-1.52
		c0-0.845,0.619-1.549,1.548-1.549C17.115,175.057,17.734,175.732,17.734,176.605z M14.976,194.06v-13.626h2.478v13.626H14.976z"/>
	<path fill="#3B2C85" d="M20.943,184.685c0-1.604-0.028-2.984-0.113-4.251h2.168l0.112,2.703h0.084
		c0.62-1.83,2.14-2.984,3.801-2.984c0.253,0,0.451,0.028,0.676,0.057v2.336c-0.253-0.056-0.507-0.056-0.845-0.056
		c-1.746,0-2.984,1.295-3.322,3.152c-0.057,0.338-0.084,0.761-0.084,1.154v7.264h-2.478V184.685z"/>
	<path fill="#3B2C85" d="M33.188,177.168v3.266h3.547v1.887h-3.547v7.348c0,1.688,0.479,2.646,1.858,2.646
		c0.676,0,1.07-0.057,1.436-0.169l0.113,1.886c-0.479,0.169-1.239,0.338-2.196,0.338c-1.154,0-2.083-0.394-2.675-1.042
		c-0.675-0.76-0.957-1.971-0.957-3.575v-7.432h-2.111v-1.887h2.111V177.9L33.188,177.168z"/>
	<path fill="#3B2C85" d="M50.304,190.315c0,1.436,0.028,2.675,0.112,3.744H48.22l-0.141-2.224h-0.056
		c-0.62,1.098-2.083,2.533-4.504,2.533c-2.14,0-4.702-1.21-4.702-5.968v-7.968h2.478v7.517c0,2.59,0.816,4.364,3.041,4.364
		c1.661,0,2.815-1.154,3.266-2.28c0.141-0.338,0.225-0.789,0.225-1.268v-8.333h2.478V190.315z"/>
	<path fill="#3B2C85" d="M55.172,187.697c0.056,3.35,2.168,4.729,4.673,4.729c1.773,0,2.872-0.31,3.772-0.704l0.45,1.773
		c-0.873,0.395-2.393,0.873-4.561,0.873c-4.195,0-6.7-2.787-6.7-6.897s2.421-7.319,6.391-7.319c4.476,0,5.63,3.885,5.63,6.391
		c0,0.507-0.028,0.873-0.084,1.154H55.172z M62.436,185.924c0.028-1.549-0.647-3.998-3.435-3.998c-2.534,0-3.604,2.28-3.8,3.998
		H62.436z"/>
	<path fill="#3B2C85" d="M67.276,174.071h2.478v19.988h-2.478V174.071z"/>
	<path fill="#3B2C85" d="M73.3,174.071h2.478v19.988H73.3V174.071z"/>
	<path fill="#3B2C85" d="M80.703,187.697c0.056,3.35,2.168,4.729,4.673,4.729c1.773,0,2.872-0.31,3.772-0.704l0.45,1.773
		c-0.873,0.395-2.393,0.873-4.561,0.873c-4.195,0-6.7-2.787-6.7-6.897s2.421-7.319,6.391-7.319c4.476,0,5.63,3.885,5.63,6.391
		c0,0.507-0.028,0.873-0.084,1.154H80.703z M87.966,185.924c0.028-1.549-0.647-3.998-3.435-3.998c-2.534,0-3.604,2.28-3.8,3.998
		H87.966z"/>
	<path fill="#3B2C85" d="M108.896,174.071v16.469c0,1.211,0.056,2.591,0.112,3.52h-2.196l-0.112-2.365h-0.084
		c-0.732,1.521-2.365,2.675-4.589,2.675c-3.294,0-5.856-2.787-5.856-6.926c-0.027-4.532,2.815-7.291,6.109-7.291
		c2.111,0,3.491,0.985,4.11,2.055h0.057v-8.136H108.896z M106.446,185.979c0-0.31-0.028-0.731-0.113-1.041
		c-0.365-1.549-1.717-2.844-3.575-2.844c-2.562,0-4.082,2.252-4.082,5.236c0,2.759,1.38,5.039,4.026,5.039
		c1.66,0,3.181-1.126,3.631-2.956c0.085-0.338,0.113-0.676,0.113-1.069V185.979z"/>
	<path fill="#3B2C85" d="M113.792,187.697c0.057,3.35,2.168,4.729,4.674,4.729c1.773,0,2.871-0.31,3.771-0.704l0.451,1.773
		c-0.873,0.395-2.394,0.873-4.561,0.873c-4.195,0-6.701-2.787-6.701-6.897s2.422-7.319,6.391-7.319c4.477,0,5.631,3.885,5.631,6.391
		c0,0.507-0.028,0.873-0.084,1.154H113.792z M121.056,185.924c0.028-1.549-0.647-3.998-3.435-3.998c-2.534,0-3.604,2.28-3.801,3.998
		H121.056z"/>
	<path fill="#3B2C85" d="M130.906,191.554c0.76,0.451,2.055,0.957,3.293,0.957c1.774,0,2.618-0.872,2.618-2.026
		c0-1.183-0.703-1.802-2.505-2.478c-2.478-0.901-3.632-2.224-3.632-3.857c0-2.195,1.802-3.997,4.701-3.997
		c1.38,0,2.59,0.366,3.322,0.845l-0.591,1.802c-0.535-0.338-1.521-0.816-2.787-0.816c-1.465,0-2.253,0.845-2.253,1.857
		c0,1.127,0.788,1.633,2.563,2.337c2.336,0.873,3.575,2.056,3.575,4.082c0,2.421-1.887,4.11-5.067,4.11
		c-1.492,0-2.872-0.394-3.829-0.957L130.906,191.554z"/>
	<path fill="#3B2C85" d="M151.344,190.794c0,1.183,0.057,2.337,0.197,3.266h-2.225l-0.196-1.718h-0.085
		c-0.76,1.07-2.224,2.027-4.166,2.027c-2.76,0-4.167-1.942-4.167-3.913c0-3.294,2.928-5.096,8.192-5.067v-0.281
		c0-1.099-0.31-3.153-3.097-3.125c-1.295,0-2.618,0.366-3.575,1.014l-0.563-1.661c1.126-0.704,2.787-1.183,4.505-1.183
		c4.166,0,5.18,2.844,5.18,5.546V190.794z M148.951,187.105c-2.703-0.056-5.771,0.423-5.771,3.069c0,1.633,1.069,2.364,2.309,2.364
		c1.802,0,2.956-1.126,3.35-2.28c0.085-0.281,0.113-0.563,0.113-0.788V187.105z"/>
	<path fill="#3B2C85" d="M154.72,184.122c0-1.437-0.027-2.563-0.112-3.688h2.196l0.141,2.252h0.057
		c0.675-1.267,2.252-2.533,4.504-2.533c1.887,0,4.814,1.126,4.814,5.8v8.107h-2.478v-7.854c0-2.196-0.816-4.025-3.153-4.025
		c-1.604,0-2.871,1.153-3.322,2.533c-0.112,0.31-0.169,0.732-0.169,1.154v8.192h-2.478V184.122z"/>
	<path fill="#3B2C85" d="M172.595,177.168v3.266h3.548v1.887h-3.548v7.348c0,1.688,0.479,2.646,1.858,2.646
		c0.676,0,1.069-0.057,1.436-0.169l0.112,1.886c-0.479,0.169-1.238,0.338-2.195,0.338c-1.154,0-2.083-0.394-2.675-1.042
		c-0.676-0.76-0.957-1.971-0.957-3.575v-7.432h-2.111v-1.887h2.111V177.9L172.595,177.168z"/>
	<path fill="#3B2C85" d="M179.52,187.697c0.057,3.35,2.168,4.729,4.673,4.729c1.774,0,2.872-0.31,3.772-0.704l0.451,1.773
		c-0.873,0.395-2.394,0.873-4.561,0.873c-4.195,0-6.701-2.787-6.701-6.897s2.422-7.319,6.391-7.319c4.477,0,5.631,3.885,5.631,6.391
		c0,0.507-0.028,0.873-0.084,1.154H179.52z M186.783,185.924c0.028-1.549-0.647-3.998-3.435-3.998c-2.534,0-3.604,2.28-3.801,3.998
		H186.783z M187.346,174.55l-3.435,4.026h-1.745l2.478-4.026H187.346z"/>
</g>
</svg>
